<svg width="222" height="221" viewBox="0 0 222 221" fill="none" xmlns="http://www.w3.org/2000/svg">
<path d="M193.594 145.195V138.281H198.778C211.187 138.281 221.25 128.635 221.25 120.994C221.25 120.994 214.336 124.453 203.963 124.453C192.543 124.453 176.307 118.262 176.307 110.625V82.9688H181.491C193.9 82.9688 203.963 73.3223 203.963 65.6817C203.963 65.6817 197.049 69.1406 186.676 69.1406C175.256 69.1406 159.02 62.9493 159.02 55.3125V27.6562H164.204C176.613 27.6562 186.676 18.0061 186.676 10.3692C186.676 10.3692 179.762 13.8281 169.389 13.8281C157.969 13.8281 141.733 7.63681 141.733 0H79.5099C79.5099 7.63681 63.2738 13.8281 51.8536 13.8281C41.4807 13.8281 34.5666 10.3692 34.5666 10.3692C34.5666 18.0061 44.6298 27.6562 57.0382 27.6562H62.2229V55.3125C62.2229 62.9493 45.9868 69.1406 34.5666 69.1406C24.1937 69.1406 17.2796 65.6817 17.2796 65.6817C17.2796 73.3186 27.3428 82.9688 39.7512 82.9688H44.9359V110.625C44.9359 118.262 28.6998 124.453 17.2796 124.453C6.91406 124.453 0 120.998 0 120.998C0 128.635 10.0632 138.281 22.4716 138.281H27.6562V165.938L0 221.25H221.25L193.594 165.938V145.195ZM196.4 179.201L198.067 182.398H189.851L195.567 191.993H203.063L204.726 195.198H179.327L184.681 204.793H209.719L211.39 207.99H201.81L195.563 219.185H192.233L198.476 207.99H175.16L168.917 219.185H165.587L171.83 207.99H142.684L148.931 219.185H145.601L139.354 207.99H116.042L122.281 219.185H118.955L112.708 207.99H89.3924L95.6353 219.185H92.3055L86.0626 207.99H68.5764L62.3298 219.185H59.0037L65.2429 207.99H38.5934L32.3504 219.185H29.0133L35.2562 207.99H9.85669L11.5271 204.793H22.7703L28.1209 195.198H16.52L18.1831 191.993H39.0027L33.2907 182.398H23.1833L24.8501 179.201H39.0064L45.6734 168.006H48.9995L42.3362 179.201H72.3156L65.6559 168.006H68.9821L75.6454 179.201H98.9651L92.2981 168.006H95.6279L102.291 179.201H118.951L125.615 168.006H128.944L122.277 179.201H145.597L152.261 168.006H155.587L148.927 179.201H178.91L172.243 168.006H175.569L182.236 179.201H196.4ZM94.9863 19.8793C98.8803 16.7781 101.329 12.0987 110.625 12.0987C119.936 12.0987 122.016 16.6085 126.264 19.8756C136.367 27.6526 144.517 27.6231 145.822 27.6526H75.4241C76.7295 27.6267 85.1923 27.6562 94.9863 19.8793ZM65.6854 34.5703H89.8865V48.3984H96.8006V34.5703H107.174V48.3984H114.088V34.5703H124.46V48.3984H131.375V34.5703H155.576V55.3125H65.6854V34.5703ZM110.625 62.5695L138.668 82.9688H82.5816L110.625 62.5695ZM55.3125 89.8828V103.711H62.2266V89.8828H82.9688V103.711H86.4276V89.8828H93.3417V103.711H96.8006V89.8828H103.715V103.711H107.174V89.8828H114.088V103.711H117.546V89.8828H124.46V103.711H127.919V89.8828H134.833V103.711H138.281V89.8828H159.023V103.711H165.938V89.8828H172.852V110.168H48.3984V89.8828H55.3125ZM86.0404 127.912C92.1764 123.782 96.0188 117.539 110.625 117.539C125.257 117.539 128.524 123.557 135.21 127.912C151.088 138.281 163.884 138.241 165.938 138.281H55.3125C57.3664 138.241 70.6599 138.281 86.0404 127.912ZM38.0292 145.195V159.023H44.9432V145.195H67.4149V159.023H70.8737V145.195H77.7878V159.023H81.2467V145.195H88.1608V159.023H91.6196V145.195H98.5337V159.023H101.993V145.195H108.907V159.023H112.366V145.195H119.28V159.023H122.738V145.195H129.652V159.023H133.111V145.195H140.025V159.023H143.484V145.195H150.398V159.023H153.857V145.195H176.329V159.023H183.243V145.195H190.157V163.751H31.1151V145.195H38.0292Z" fill="white"/>
</svg>
