<svg width="119" height="142" viewBox="0 0 119 142" fill="none" xmlns="http://www.w3.org/2000/svg">
<path fill-rule="evenodd" clip-rule="evenodd" d="M70.8068 99.0463C68.0786 109.259 68.0042 117.776 70.5866 124.597C75.3319 137.137 92.0071 140.745 92.7926 144.032C93.578 147.322 70.5866 149 57.5915 149C44.5993 149 28.6619 146.518 28.6619 144.032C28.6619 141.55 43.7871 138.254 48.3836 124.364C51.0612 116.268 50.7696 106.967 47.503 96.4686C46.6894 96.7234 45.8416 96.8521 44.9891 96.85C41.4458 96.85 38.4945 94.6746 37.8578 91.8019C35.4123 93.4111 32.348 94.3647 29.0248 94.3647C21.8549 94.3647 15.9018 89.9185 14.7236 84.0718C13.7029 84.3128 12.6575 84.4338 11.6087 84.4323C5.19746 84.4323 0 79.9862 0 74.5C0 70.7959 2.36816 67.5655 5.88172 65.858C4.07585 64.7286 2.90367 62.9018 2.90367 60.8427C2.90367 60.1275 3.0435 59.4391 3.30531 58.7984C1.31498 57.9133 0 56.3816 0 54.6323C0 52.4659 2.029 50.6242 4.85532 49.9448C1.89512 48.127 0 45.3377 0 42.2177C0 37.2619 4.76905 33.1585 11.0048 32.4045C9.53429 30.6226 8.723 28.3868 8.70804 26.075C8.70804 19.9034 14.5541 14.9 21.7686 14.9C22.4945 14.9 23.2086 14.9507 23.9047 15.049C25.6451 10.6297 30.5302 7.45 36.281 7.45C37.8786 7.45 39.4078 7.69436 40.824 8.14434C41.8057 3.51342 46.548 0 52.2423 0C58.0675 0 62.8931 3.67136 63.7261 8.45426C65.8533 6.32058 69.0217 4.96766 72.5621 4.96766C78.9733 4.96766 84.1708 9.41382 84.1708 14.9C84.1708 16.7476 83.5788 18.479 82.5524 19.963C83.079 19.9004 83.6204 19.8677 84.1708 19.8677C90.1388 19.8677 95.0596 23.7208 95.7081 28.6825C97.534 27.7756 99.546 27.3083 101.584 27.3177C107.998 27.3177 113.196 31.7638 113.196 37.25C113.196 40.9899 110.78 44.247 107.21 45.9427C110.78 47.6353 113.196 50.8924 113.196 54.6323C113.196 57.8805 111.372 60.7682 108.555 62.58C109.643 63.8256 110.292 65.3723 110.292 67.05C110.292 67.6937 110.197 68.3165 110.018 68.9095C115.373 71.4515 119 76.3387 119 81.95C119 90.1778 111.205 96.85 101.584 96.85C99.1846 96.8572 96.8038 96.4291 94.5568 95.5865C91.9209 97.899 88.2407 99.3323 84.1708 99.3323C81.0576 99.3566 78.004 98.4768 75.3795 96.7993C74.1299 97.8632 72.5621 98.6499 70.8068 99.0463Z" fill="white"/>
</svg>
